General
Complete name :Wrath of the Titans 2012
Format : AVI
Format/Info : Audio Video Interleave
File size : 1.05 GiB
Duration : 1h 39mn
Overall bit rate : 1 504 Kbps
Video #0
ID : 0
Format : AVC
Format/Info : Advanced Video Codec
Format profile : Main@L5.1
Format settings, CABAC : Yes
Format settings, ReFrames : 1 frame
Codec ID : H264
Duration : 1h 39mn
Bit rate : 1 302 Kbps
Width : 720 pixels
Height : 576 pixels
Display aspect ratio : 5:4
Frame rate : 23.976 fps
Standard : PAL
Color space : YUV
Chroma subsampling : 4:2:0
Bit depth : 8 bits
Scan type : Progressive
Bits/(Pixel*Frame) : 0.131
Stream size : 927 MiB (87%)
Audio #1
ID : 1
Format : MPEG Audio
Format version : Version 1
Format profile : Layer 3
Codec ID : 55
Codec ID/Hint : MP3
Duration : 1h 39mn
Bit rate mode : Constant
Bit rate : 192 Kbps
Channel(s) : 2 channels
Sampling rate : 44.1 KHz
Compression mode : Lossy
Stream size : 137 MiB (13%)
Alignment : Split accross interleaves
Interleave, duration : 42 ms (1.00 video frame) 